# xmcd
#
# Track frame offsets:
#	150
#	15628
#	31261
#	50561
#	67199
#	89979
#	101259
#	113159
#	130852
#	143977
#	155641
#	176700
#	190803
#	201167
#	219124
#
# Disc length: 3173 seconds
# Revision: 1
# Processed by: cddbd v1.5.2PL0 Copyright (c) Steve Scherf et al.
# Submitted via: dBpowerAMP V12.0
#
DISCID=da0c630f
DTITLE=The Haints Old Time Stringband - Shout Monah
DYEAR=2009
DGENRE=Country
TTITLE0=Knoxville Rag
TTITLE1=Lowe Bonnie
TTITLE2=Devil's Dream - Last Chance
TTITLE3=Milwaukee Blues
TTITLE4=Eadle Alley
TTITLE5=Old Christmas Morning
TTITLE6=Charming Betsy
TTITLE7=Jake's Got a Bellyache
TTITLE8=Riley the Furniture Man
TTITLE9=Tupelo Blues
TTITLE10=Chattanooga - Sheeps and Hogs Walking Through the Pasture
TTITLE11=When the Good Lord Sets You Free
TTITLE12=Baptist Shout
TTITLE13=Bob McKinney
TTITLE14=Life's Fortune
EXTD=
EXTT0=
EXTT1=
EXTT2=
EXTT3=
EXTT4=
EXTT5=
EXTT6=
EXTT7=
EXTT8=
EXTT9=
EXTT10=
EXTT11=
EXTT12=
EXTT13=
EXTT14=
PLAYORDER=
